<?xml version="1.0" standalone="no"?>
<!DOCTYPE svg PUBLIC "-//W3C//DTD SVG 20010904//EN"
 "http://www.w3.org/TR/2001/REC-SVG-20010904/DTD/svg10.dtd">
<svg version="1.0" xmlns="http://www.w3.org/2000/svg"
 width="512.000000pt" height="512.000000pt" viewBox="0 0 512.000000 512.000000"
 preserveAspectRatio="xMidYMid meet">
<metadata>
Created by potrace 1.16, written by Peter Selinger 2001-2019
</metadata>
<g transform="translate(0.000000,512.000000) scale(0.100000,-0.100000)"
fill="#a6d4fe" stroke="none">
<path d="M2555 4081 c-107 -18 -184 -43 -290 -95 -134 -66 -223 -132 -336
-249 l-86 -88 -105 15 c-127 19 -179 20 -279 2 -299 -54 -544 -293 -665 -651
-20 -60 -42 -115 -48 -121 -6 -6 -33 -17 -61 -23 -61 -15 -132 -59 -181 -113
-111 -123 -203 -498 -175 -712 37 -276 190 -505 375 -561 88 -27 876 -152
1103 -176 138 -14 191 -6 375 57 159 54 223 87 301 154 32 28 63 50 68 50 4 0
26 -38 48 -84 30 -61 60 -105 115 -163 123 -131 125 -131 616 -202 555 -80
607 -83 747 -40 89 28 298 111 376 150 171 87 274 217 333 419 27 94 25 315
-4 421 -40 149 -107 250 -209 315 -28 18 -59 43 -67 56 -9 15 -18 71 -25 158
-14 190 -54 321 -140 468 -120 202 -267 313 -501 378 -52 14 -105 32 -117 40
-11 7 -43 50 -70 95 -113 191 -274 319 -523 415 -185 71 -433 108 -575 85z
m355 -106 c231 -74 431 -241 540 -452 l46 -88 49 -8 c188 -30 373 -128 485
-254 97 -110 180 -262 219 -401 25 -91 45 -257 39 -328 -4 -46 -2 -57 14 -65
10 -5 24 -7 30 -3 6 4 8 3 4 -4 -3 -5 9 -20 28 -31 57 -36 153 -146 186 -215
68 -143 90 -331 55 -467 -36 -137 -119 -272 -217 -350 -66 -53 -206 -120 -323
-155 -138 -41 -224 -38 -690 30 -214 31 -408 62 -430 67 -65 17 -118 54 -188
129 -63 68 -79 94 -125 201 l-20 47 -61 6 c-195 19 -178 20 -192 -6 -71 -134
-267 -245 -449 -255 -86 -5 -91 -4 -625 77 -343 52 -537 89 -593 115 -107 49
-214 192 -272 365 -34 100 -38 265 -11 401 39 196 87 317 155 387 52 56 104
82 173 89 64 7 72 16 98 118 43 172 126 322 246 449 127 135 248 201 414 226
89 13 144 9 258 -22 94 -25 84 -30 240 125 159 157 291 236 480 288 110 29
320 22 437 -16z m435 -174 c93 -77 167 -185 181 -261 5 -31 2 -29 -28 25 -49
88 -74 122 -152 203 -76 78 -76 95 -1 33z m436 -367 c75 -22 231 -104 311
-164 116 -86 205 -220 251 -380 29 -100 43 -224 29 -260 l-10 -25 -7 30 c-47
206 -90 313 -177 446 -100 154 -220 262 -359 323 -30 12 -65 28 -79 34 -37 16
-21 14 41 -4z m704 -1065 c70 -33 140 -102 175 -172 33 -68 60 -177 60 -246 0
-38 -2 -42 -15 -31 -8 7 -27 50 -41 96 -41 134 -89 220 -166 295 -88 86 -89
94 -13 58z"/>
<path d="M2599 3555 c-169 -43 -343 -167 -471 -337 -21 -28 -37 -38 -70 -43
-55 -9 -75 -20 -120 -63 -21 -20 -39 -34 -42 -31 -2 2 -15 27 -29 54 -30 60
-69 98 -120 120 -64 27 -199 55 -263 55 -135 0 -274 -72 -376 -194 -95 -113
-199 -350 -238 -538 -10 -52 -14 -58 -45 -68 -49 -16 -81 -45 -111 -100 -24
-44 -32 -51 -80 -65 -67 -19 -117 -63 -151 -129 -60 -117 -12 -267 93 -295 22
-5 185 -21 364 -36 179 -14 417 -34 530 -45 113 -11 390 -35 615 -55 226 -19
478 -42 560 -50 83 -8 380 -35 660 -60 281 -25 578 -51 662 -59 168 -15 210
-11 279 29 82 48 121 120 111 206 -11 87 -56 150 -150 208 -21 13 -55 49 -77
81 -28 41 -52 63 -84 78 -42 20 -45 24 -51 69 -34 276 -110 405 -276 468 -79
31 -90 43 -115 135 -24 89 -87 243 -126 307 -97 160 -252 264 -508 340 -106
31 -285 40 -371 18z m276 -70 c160 -41 283 -135 379 -288 78 -125 118 -231
170 -449 7 -32 42 -53 106 -63 145 -23 241 -144 275 -344 21 -126 27 -137 78
-161 55 -26 84 -56 122 -127 26 -48 39 -61 90 -87 78 -40 117 -94 123 -170 4
-53 3 -57 -32 -92 l-37 -37 -122 6 c-108 5 -458 34 -992 82 -93 9 -422 38
-730 65 -308 28 -681 61 -830 75 -148 14 -405 36 -569 50 -219 18 -306 29
-323 41 -58 38 -78 118 -48 192 28 66 58 88 152 112 36 9 46 18 64 53 30 59
67 96 105 103 18 3 39 13 47 22 8 10 27 65 41 124 75 313 203 521 373 605 64
32 85 37 142 37 129 0 222 -72 267 -207 18 -55 29 -62 76 -49 20 5 44 5 62 -1
26 -9 32 -7 53 19 60 72 85 94 123 104 118 30 113 27 155 91 60 91 174 188
293 248 110 56 273 75 387 46z m403 -150 c110 -83 191 -226 242 -429 32 -126
30 -143 -13 -132 -21 5 -26 15 -37 68 -14 72 -52 180 -103 288 -30 65 -66 119
-150 227 -29 36 -5 27 61 -22z m-1499 -178 c23 -37 32 -98 15 -104 -6 -2 -21
20 -35 49 -13 29 -42 73 -64 97 l-40 44 51 -26 c31 -16 60 -40 73 -60z m1909
-443 c124 -50 201 -162 217 -316 6 -57 5 -68 -8 -68 -10 0 -20 22 -32 72 -29
115 -78 202 -144 254 -31 24 -71 51 -88 59 -18 9 -33 18 -33 21 0 6 48 -6 88
-22z m388 -619 c20 -43 32 -56 59 -65 61 -20 110 -64 134 -120 12 -28 21 -59
19 -68 -3 -11 -12 2 -26 33 -29 63 -85 122 -139 146 -30 13 -48 29 -62 57 -11
22 -32 54 -47 72 l-28 33 33 -17 c23 -12 40 -34 57 -71z"/>
</g>
</svg>