<?xml version="1.0" standalone="no"?>
<!DOCTYPE svg PUBLIC "-//W3C//DTD SVG 20010904//EN"
 "http://www.w3.org/TR/2001/REC-SVG-20010904/DTD/svg10.dtd">
<svg version="1.0" xmlns="http://www.w3.org/2000/svg"
 width="512.000000pt" height="512.000000pt" viewBox="0 0 512.000000 512.000000"
 preserveAspectRatio="xMidYMid meet">
<metadata>
Created by potrace 1.16, written by Peter Selinger 2001-2019
</metadata>
<g transform="translate(0.000000,512.000000) scale(0.100000,-0.100000)"
fill="#a6d4fe" stroke="none">
<path d="M2785 4116 c-18 -13 -18 -15 -2 -30 20 -20 20 -18 7 -50 -9 -24 -7
-26 18 -26 15 0 38 -3 52 -7 24 -6 24 -6 8 14 -19 21 -25 73 -8 73 20 0 9 28
-12 34 -33 9 -42 7 -63 -8z"/>
<path d="M2288 3848 c-64 -134 -150 -313 -191 -398 l-74 -155 -77 -37 c-42
-21 -81 -38 -86 -38 -6 0 -10 27 -10 60 l0 60 -130 0 -129 0 -3 -112 -3 -113
-99 -5 -98 -5 -64 -184 c-35 -102 -64 -193 -64 -203 0 -29 19 -30 103 -4 l77
24 0 -33 c0 -50 -13 -77 -85 -171 -91 -120 -89 -136 17 -98 38 14 72 24 74 21
3 -2 3 -53 2 -113 l-3 -109 -30 52 c-16 29 -36 55 -44 58 -8 3 -31 -10 -53
-32 -26 -25 -41 -34 -48 -27 -9 9 -18 65 -46 293 -8 62 -48 101 -104 101 -52
0 -76 -13 -95 -50 -25 -49 7 -117 52 -108 26 5 27 31 1 43 -46 20 -9 78 46 73
46 -5 63 -40 75 -153 6 -54 9 -101 7 -103 -2 -2 -21 6 -42 17 -76 41 -86 22
-16 -30 67 -50 104 -123 109 -213 4 -52 1 -76 -10 -90 -14 -19 -14 -19 -40 0
-29 21 -47 62 -47 108 0 53 -11 101 -29 124 -16 22 -17 21 -16 -35 0 -47 -3
-58 -17 -61 -25 -5 -65 39 -78 87 -14 54 -32 54 -24 -1 9 -61 33 -98 83 -127
72 -43 91 -100 41 -121 -62 -26 -140 6 -172 70 -13 26 -19 30 -23 17 -11 -26
17 -70 60 -94 46 -26 109 -30 159 -9 32 13 56 7 56 -14 0 -16 -88 -45 -132
-44 -40 0 -46 -2 -36 -14 19 -22 120 -11 159 17 37 27 41 24 65 -56 20 -67 16
-99 -11 -95 -64 9 -92 5 -123 -16 -47 -34 -39 -44 15 -20 37 16 54 19 82 12
l35 -9 1 -100 c2 -90 1 -97 -11 -69 -26 62 -116 67 -142 9 -8 -18 -20 -25 -49
-27 -30 -2 -40 -9 -53 -33 -8 -16 -25 -38 -38 -48 -12 -10 -22 -29 -22 -42 0
-43 20 -48 163 -41 119 6 134 5 155 -12 l23 -18 -19 -25 c-20 -24 -22 -24
-259 -31 -131 -4 -265 -12 -298 -17 -41 -7 179 -9 695 -7 640 4 752 2 736 -10
-10 -7 -24 -15 -30 -17 -6 -2 -7 -8 -3 -13 11 -12 1460 -18 1512 -6 35 8 28
10 -65 16 -58 3 -212 11 -343 16 -217 8 -259 12 -246 24 2 2 245 0 539 -5 911
-14 1298 -6 738 16 -108 5 -200 11 -205 14 -5 3 -16 18 -26 34 -14 22 -25 27
-58 27 -36 0 -40 2 -29 15 10 12 38 15 131 15 110 0 119 1 133 22 32 46 7 108
-43 108 -16 0 -34 7 -41 15 -7 8 -18 15 -24 15 -8 0 -11 12 -8 35 3 28 -1 40
-26 65 -20 20 -40 30 -60 30 -33 0 -78 -31 -87 -60 -5 -15 -12 -18 -39 -13
-26 4 -38 1 -52 -16 -11 -12 -34 -36 -51 -53 -60 -58 -33 -126 45 -113 37 6
41 4 61 -28 11 -19 21 -47 21 -63 l0 -29 -18 34 c-24 47 -44 58 -81 44 -28
-10 -32 -9 -56 23 -21 27 -26 46 -27 100 -2 63 -1 68 30 95 18 16 39 29 47 29
8 0 15 4 15 9 0 17 -43 41 -72 41 -24 0 -28 4 -28 28 0 115 112 232 223 232
41 0 107 21 107 35 0 2 -22 1 -50 -2 -27 -3 -50 -3 -50 -1 0 3 12 26 26 52 24
44 28 46 69 46 48 0 87 25 110 71 l16 29 -88 0 c-80 -1 -86 -2 -69 -15 11 -8
38 -15 59 -15 39 0 40 0 22 -20 -20 -22 -52 -25 -102 -11 -32 9 -33 9 -39 -27
-3 -20 -17 -49 -31 -63 -26 -29 -99 -66 -109 -56 -4 3 -3 27 0 52 6 40 14 50
61 86 66 49 85 88 85 169 0 82 -23 77 -31 -6 -3 -32 -11 -69 -17 -81 -13 -24
-73 -73 -89 -73 -28 0 -22 175 8 231 6 11 9 23 6 25 -8 8 -28 -24 -45 -72 -18
-50 -37 -67 -39 -36 -1 15 -194 586 -218 645 -6 15 -25 17 -195 17 l-189 0
-65 108 c-36 59 -74 121 -86 137 -18 27 -20 46 -20 182 0 90 4 154 10 158 19
12 11 45 -10 45 -19 0 -20 7 -20 151 0 123 3 153 15 166 9 8 15 23 13 32 -3
14 -23 16 -141 19 l-137 3 0 -30 c0 -16 5 -31 10 -33 7 -2 10 -54 8 -143 l-3
-140 -106 170 c-58 94 -121 196 -140 228 -18 31 -36 57 -39 57 -4 0 -59 -109
-122 -242z m153 140 c11 -20 10 -22 -3 -10 -14 11 -18 7 -31 -30 -9 -24 -68
-158 -132 -298 -65 -140 -173 -383 -242 -540 -69 -157 -146 -331 -170 -387
-38 -85 -50 -103 -74 -112 -26 -9 -28 -8 -20 7 5 9 55 123 111 252 215 495
520 1140 540 1140 5 0 15 -10 21 -22z m29 -48 c6 -11 8 -20 6 -20 -3 0 -10 9
-16 20 -6 11 -8 20 -6 20 3 0 10 -9 16 -20z m280 -175 c0 -97 -4 -155 -10
-155 -5 0 -10 22 -10 48 0 27 -3 97 -7 155 -5 95 -4 107 10 107 15 0 17 -18
17 -155z m-184 13 c42 -73 84 -143 92 -155 8 -13 12 -23 9 -23 -7 0 -97 145
-151 243 -66 118 -31 72 50 -65z m-50 -56 c26 -37 71 -92 100 -122 28 -30 79
-100 111 -155 80 -134 88 -149 73 -140 -8 5 -11 3 -8 -6 3 -8 11 -13 17 -11 7
1 10 -2 7 -7 -4 -5 2 -18 12 -28 21 -20 82 -108 82 -118 0 -3 -31 20 -68 52
-191 162 -308 260 -320 267 -15 9 -43 -11 -192 -134 -63 -53 -120 -99 -127
-103 -11 -7 4 23 119 243 58 111 140 239 155 242 11 2 10 8 -3 26 l-16 24 -50
-56 c-72 -81 -100 -92 -48 -19 84 114 91 123 101 118 5 -3 30 -36 55 -73z
m339 -377 c50 -82 149 -244 220 -360 71 -115 143 -235 160 -265 17 -30 40 -68
50 -85 14 -23 15 -27 2 -15 -9 8 -88 134 -175 280 -88 146 -219 361 -291 479
-72 117 -131 216 -131 219 0 11 70 -96 165 -253z m-525 232 c0 -2 -13 -16 -30
-32 -16 -16 -30 -26 -30 -22 0 3 12 18 27 32 27 24 33 28 33 22z m600 -42 l0
-35 -64 0 c-60 0 -66 2 -85 29 -12 16 -21 32 -21 35 0 3 38 6 85 6 l85 0 0
-35z m-330 -231 c157 -137 231 -206 226 -211 -2 -3 -68 45 -146 106 l-142 111
-71 -59 c-75 -62 -146 -131 -135 -131 4 0 50 34 103 75 110 86 148 100 59 23
-32 -29 -127 -118 -210 -198 -83 -80 -192 -182 -242 -228 l-91 -83 70 152 c38
84 69 154 69 156 0 2 6 3 13 3 8 0 29 15 48 33 19 17 62 58 97 89 34 31 62 61
63 65 1 11 191 162 204 163 6 0 44 -30 85 -66z m101 -151 c53 -40 103 -73 111
-73 23 0 71 -53 150 -165 l70 -100 -119 116 c-125 122 -257 238 -233 204 8
-12 117 -120 242 -240 l227 -220 1 -417 0 -418 -105 0 -105 0 0 -160 0 -160
249 0 250 0 0 160 0 160 -68 0 c-37 0 -96 3 -130 6 l-61 7 0 263 c0 145 1 264
3 264 6 0 257 -90 292 -104 21 -9 43 -22 47 -29 4 -7 8 -182 8 -389 l0 -378
-223 0 c-123 0 -306 -3 -405 -7 l-182 -6 0 177 c0 127 -4 186 -14 209 -43 102
-171 115 -226 24 -18 -29 -20 -51 -20 -219 l0 -188 -84 0 c-65 0 -85 -3 -90
-15 -3 -8 -12 -15 -21 -15 -13 0 -15 28 -15 205 l0 205 -100 0 -100 0 0 -190
0 -191 -72 3 -73 3 -1 515 c-1 283 1 543 4 576 l5 62 199 188 c469 444 459
435 477 421 9 -6 60 -45 112 -84z m-866 57 c-3 -6 -26 -15 -50 -21 -25 -6 -42
-15 -39 -20 4 -7 -104 -69 -121 -69 -3 0 -5 27 -5 60 l0 60 111 0 c71 0 108
-4 104 -10z m135 -24 c-5 -13 -25 -57 -44 -97 l-36 -74 -272 -122 c-150 -68
-281 -126 -290 -129 -15 -5 -9 21 34 142 28 82 54 152 57 155 3 4 42 9 85 11
l79 5 -37 -19 c-26 -13 -43 -32 -56 -61 -10 -23 -17 -43 -15 -46 2 -2 113 55
247 127 134 72 246 131 250 131 4 1 3 -10 -2 -23z m270 -20 c0 -2 -8 -10 -17
-17 -16 -13 -17 -12 -4 4 13 16 21 21 21 13z m-40 -30 c0 -2 -17 -16 -37 -31
l-38 -26 35 30 c34 31 40 35 40 27z m1260 -211 c0 -12 -16 -15 -80 -15 -64 0
-80 3 -80 15 0 12 16 15 80 15 64 0 80 -3 80 -15z m-188 -170 c125 -194 151
-235 146 -235 -6 0 -84 116 -165 245 -38 61 -77 124 -88 140 -10 17 -14 26 -8
20 7 -5 58 -82 115 -170z m-1412 160 c0 -6 -360 -185 -372 -185 -4 0 -8 6 -8
14 0 7 20 21 43 30 24 9 107 45 183 81 136 63 154 70 154 60z m1550 -169 c22
-60 39 -110 37 -112 -4 -5 -81 184 -91 226 -13 49 12 -3 54 -114z m-1596 67
c-59 -135 -40 -118 -264 -232 -114 -58 -198 -96 -190 -85 8 10 36 44 62 74 25
30 50 68 53 83 6 21 21 35 59 54 28 14 53 29 56 33 4 6 235 127 247 129 2 1
-9 -25 -23 -56z m55 -708 c0 -236 -2 -474 -6 -527 l-6 -98 -184 0 -183 0 0
495 0 494 48 21 c146 66 195 82 206 68 10 -13 18 -13 61 2 49 17 50 17 57 -4
3 -12 6 -214 7 -451z m1530 375 c68 -46 140 -109 126 -110 -14 0 -158 82 -201
115 -19 14 -38 34 -44 45 -10 18 -9 19 27 4 20 -9 62 -33 92 -54z m-1965 -269
c17 -15 23 -121 7 -121 -5 0 -23 -13 -40 -29 -30 -28 -31 -33 -25 -79 5 -43 3
-52 -17 -70 -12 -12 -24 -20 -26 -18 -2 2 -12 33 -22 69 -15 54 -17 86 -12
175 6 98 10 114 35 153 l29 43 28 -55 c15 -30 35 -61 43 -68z m2270 93 c11
-27 -2 -50 -44 -79 -38 -26 -41 -27 -58 -11 -10 9 -23 16 -29 16 -12 0 -27 66
-18 80 3 6 37 10 75 10 54 0 69 -3 74 -16z m45 -159 c1 -100 -10 -138 -54
-194 l-35 -44 -22 49 c-11 27 -20 60 -19 74 1 14 3 51 4 83 3 52 6 60 33 76
16 10 40 30 54 45 22 24 25 25 31 9 4 -10 8 -54 8 -98z m-151 -18 c3 -42 1
-47 -17 -47 -18 0 -21 6 -21 51 0 43 3 50 18 47 13 -2 18 -15 20 -51z m-2146
-359 l-5 -68 -33 0 c-32 0 -63 -20 -65 -43 -3 -26 -18 71 -18 116 -1 42 3 51
40 88 42 42 42 42 36 103 -5 53 -3 64 16 84 l22 24 5 -119 c3 -65 4 -148 2
-185z m2123 272 c3 -5 1 -10 -4 -10 -6 0 -11 5 -11 10 0 6 2 10 4 10 3 0 8 -4
11 -10z m48 -113 c19 -45 19 -55 7 -133 -11 -78 -14 -84 -36 -84 l-24 0 0 136
c0 121 2 135 17 132 9 -2 25 -25 36 -51z m-989 -115 c3 -5 8 -27 12 -50 6 -40
5 -42 -31 -64 -21 -12 -34 -23 -29 -24 5 -1 26 -5 47 -9 28 -4 37 -11 37 -25
0 -11 -4 -20 -10 -20 -5 0 -10 7 -10 15 0 12 -14 15 -70 15 l-70 0 0 79 c0 88
-1 88 77 90 23 0 44 -3 47 -7z m-434 -67 l0 -55 -50 0 -50 0 0 55 0 55 50 0
50 0 0 -55z m940 5 l0 -50 -75 0 -75 0 0 50 0 50 75 0 75 0 0 -50z m270 0 l0
-50 -75 0 -75 0 0 50 0 50 75 0 75 0 0 -50z m-270 -130 l0 -60 -75 0 -75 0 0
60 0 60 75 0 75 0 0 -60z m278 3 l-3 -58 -77 -3 -78 -3 0 61 0 60 80 0 81 0
-3 -57z m-1223 -13 l0 -55 -47 -3 -48 -3 0 61 0 61 48 -3 47 -3 0 -55z m1425
-39 c0 -46 -1 -48 -25 -43 -22 4 -25 9 -25 48 0 40 2 44 25 44 23 0 25 -3 25
-49z m-1614 -154 c-15 -19 -26 -38 -26 -44 0 -16 -103 -23 -316 -23 l-194 0 0
50 0 50 281 0 280 0 -25 -33z m824 18 c0 -13 -36 -15 -260 -15 -155 0 -260 4
-260 9 0 15 46 18 293 19 196 2 227 0 227 -13z m700 -10 c0 -23 -34 -65 -52
-65 -5 0 -22 10 -38 21 -21 16 -37 20 -59 16 -17 -4 -33 -2 -36 3 -10 15 -57
12 -76 -6 -13 -12 -22 -13 -37 -5 -11 6 -82 10 -169 10 -127 -1 -154 1 -177
16 -14 10 -26 21 -26 26 0 5 147 9 335 9 l335 0 0 -25z m-2090 -30 c0 -33 -2
-35 -32 -35 -31 0 -33 3 -35 35 -2 34 0 35 33 35 32 0 34 -2 34 -35z m1417
-12 c4 -10 -59 -13 -291 -13 -247 0 -296 2 -296 14 0 20 581 18 587 -1z m873
-3 c11 -7 0 -10 -37 -10 -28 0 -55 5 -58 10 -8 13 75 13 95 0z m-850 -50 c0
-6 -110 -10 -310 -10 -200 0 -310 4 -310 10 0 6 110 10 310 10 200 0 310 -4
310 -10z"/>
<path d="M2608 3558 c50 -79 175 -249 179 -244 7 6 -70 131 -132 215 -47 64
-82 85 -47 29z"/>
<path d="M2428 2902 c-26 -9 -53 -25 -61 -36 -10 -14 -23 -18 -50 -14 l-37 4
0 -153 0 -153 275 0 275 0 0 155 0 155 -46 0 c-29 0 -51 5 -58 15 -16 21 -120
45 -191 44 -33 0 -81 -8 -107 -17z m112 -86 c0 -57 -8 -66 -56 -66 l-44 0 0
50 0 50 50 0 50 0 0 -34z m120 -16 l0 -50 -55 0 -55 0 0 50 0 50 55 0 55 0 0
-50z m-300 -105 c0 -96 -3 -115 -15 -115 -12 0 -15 14 -15 69 0 37 -3 89 -6
115 -6 42 -5 46 15 46 20 0 21 -4 21 -115z m432 99 c-5 -9 -7 -47 -4 -85 4
-65 4 -69 -17 -69 -20 0 -21 5 -21 85 0 84 0 85 25 85 21 0 24 -3 17 -16z
m-254 -116 l3 -58 -51 0 -50 0 0 53 c0 30 3 56 6 59 3 3 24 5 47 4 l42 -1 3
-57z m120 -1 l3 -58 -53 3 -53 3 -3 44 c-5 66 1 73 55 69 l48 -3 3 -58z m132
-72 c0 -8 -9 -15 -20 -15 -11 0 -20 7 -20 15 0 8 9 15 20 15 11 0 20 -7 20
-15z"/>
<path d="M2620 2293 c-28 -10 -59 -45 -65 -74 -11 -50 -35 -36 -35 21 0 49 -1
50 -30 50 l-30 0 0 -120 0 -120 30 0 c29 0 30 1 30 50 0 57 13 65 29 18 18
-51 39 -68 87 -68 35 0 47 5 68 30 61 74 36 196 -44 213 -14 3 -32 3 -40 0z
m44 -79 c11 -28 6 -70 -9 -90 -15 -19 -15 -19 -30 0 -8 11 -15 31 -15 44 0 49
40 84 54 46z"/>
<path d="M2000 2176 c0 -94 3 -116 14 -116 8 0 21 -3 29 -6 11 -4 16 6 21 40
9 60 36 64 36 6 0 -36 3 -40 25 -40 l25 0 0 115 0 115 -25 0 c-23 0 -25 -3
-25 -50 0 -37 -4 -50 -14 -50 -11 0 -16 14 -18 48 -3 45 -4 47 -35 50 l-33 3
0 -115z"/>
<path d="M2170 2176 l0 -116 31 0 31 0 -4 113 -3 112 -27 3 -28 3 0 -115z"/>
<path d="M2242 2173 l3 -118 55 0 c44 0 55 3 58 18 3 14 -4 17 -32 17 -29 0
-36 4 -36 20 0 15 7 20 25 20 14 0 25 3 25 8 0 4 3 17 6 30 6 19 3 22 -25 22
-26 0 -31 4 -31 25 0 21 5 25 29 25 26 0 41 14 41 41 0 5 -27 9 -60 9 l-61 0
3 -117z"/>
<path d="M2760 2175 l0 -115 30 0 c27 0 30 3 31 33 l2 32 10 -38 c16 -56 47
-48 69 18 l17 50 1 -47 c0 -44 2 -48 25 -48 l25 0 0 115 0 115 -40 0 c-38 0
-40 -2 -51 -42 l-12 -43 -18 43 c-16 38 -21 42 -54 42 l-35 0 0 -115z"/>
<path d="M2990 2170 l0 -120 70 0 c63 0 70 2 70 20 0 16 -7 20 -35 20 -28 0
-35 4 -35 20 0 13 7 20 18 20 26 0 30 6 24 35 -3 16 -11 25 -23 25 -14 0 -19
7 -19 25 0 22 4 25 35 25 31 0 35 3 35 25 0 24 -2 25 -70 25 l-70 0 0 -120z"/>
<path d="M3242 2271 c6 -10 33 -31 60 -47 26 -15 44 -30 39 -34 -5 -3 -10 -35
-13 -72 l-4 -68 51 0 52 0 -5 55 c-4 52 -3 55 19 55 17 0 4 11 -46 38 -38 21
-88 50 -110 65 -47 32 -60 34 -43 8z m158 -151 c0 -29 -4 -40 -15 -40 -11 0
-15 11 -15 40 0 29 4 40 15 40 11 0 15 -11 15 -40z"/>
<path d="M2049 1970 c-39 -21 -65 -47 -56 -57 4 -3 33 6 66 21 70 31 111 32
170 6 47 -22 70 -18 49 7 -37 45 -164 57 -229 23z"/>
<path d="M2515 1971 c-47 -21 -79 -54 -95 -95 -9 -24 -7 -49 3 -35 65 93 101
119 168 119 54 0 101 -28 137 -80 20 -29 23 -31 17 -10 -12 40 -51 86 -88 104
-45 21 -92 20 -142 -3z"/>
<path d="M2086 1915 c-44 -15 -99 -63 -61 -52 11 3 40 13 65 22 51 19 119 14
158 -11 32 -21 43 -7 14 17 -25 20 -84 39 -117 39 -11 -1 -38 -7 -59 -15z"/>
<path d="M1618 2335 c4 -100 2 -115 -12 -115 -9 0 -16 -7 -16 -15 0 -12 17
-15 90 -15 73 0 90 3 90 15 0 8 -4 15 -10 15 -5 0 -11 49 -12 113 l-3 112 -65
3 -65 3 3 -116z m92 40 c0 -18 -5 -25 -20 -25 -15 0 -20 7 -20 25 0 18 5 25
20 25 15 0 20 -7 20 -25z m10 -95 c0 -47 -2 -50 -25 -50 -23 0 -25 3 -25 50 0
47 2 50 25 50 23 0 25 -3 25 -50z"/>
<path d="M1600 1923 c0 -3 7 -14 16 -24 13 -14 14 -36 8 -143 -6 -114 -9 -126
-25 -126 -12 0 -19 -7 -19 -20 0 -19 7 -20 120 -20 92 0 120 3 120 13 0 20
-22 37 -47 37 -23 0 -23 1 -23 121 0 104 3 124 17 135 10 7 16 15 13 18 -8 7
-180 17 -180 9z m120 -88 c0 -41 -2 -45 -25 -45 -23 0 -25 4 -25 45 0 41 2 45
25 45 23 0 25 -4 25 -45z m0 -130 c0 -63 -1 -65 -25 -65 -24 0 -25 2 -25 65 0
63 1 65 25 65 24 0 25 -2 25 -65z"/>
<path d="M1648 3635 c-78 -52 -89 -65 -54 -65 26 0 26 -1 26 -73 0 -65 -2 -74
-25 -91 -14 -10 -25 -27 -25 -37 0 -18 11 -19 155 -19 127 0 155 3 155 14 0
25 -12 46 -26 46 -11 0 -14 18 -14 79 0 75 1 80 23 83 18 2 9 12 -52 56 -41
28 -80 52 -86 52 -5 0 -40 -20 -77 -45z m142 -135 l0 -70 -65 0 -65 0 0 63 c0
35 3 67 7 70 3 4 33 7 65 7 l58 0 0 -70z m35 -110 c4 -6 -32 -10 -99 -10 -64
0 -106 4 -106 10 0 6 40 10 99 10 56 0 103 -4 106 -10z"/>
<path d="M1690 3505 c0 -43 1 -45 30 -45 29 0 30 2 30 45 0 43 -1 45 -30 45
-29 0 -30 -2 -30 -45z"/>
<path d="M3455 3583 c-11 -8 -38 -24 -60 -34 -31 -15 -35 -19 -17 -19 27 0 73
22 92 45 18 22 9 27 -15 8z"/>
<path d="M3145 3437 c-27 -12 -65 -47 -52 -47 2 0 21 7 40 15 75 31 137 9 167
-58 15 -35 19 -39 25 -24 10 25 -17 81 -49 102 -34 23 -95 28 -131 12z"/>
<path d="M1087 3280 c-14 -11 -32 -20 -40 -20 -9 0 -18 -4 -21 -9 -8 -12 136
-21 152 -9 16 14 15 23 -4 42 -21 22 -56 20 -87 -4z"/>
<path d="M3389 3257 c-35 -24 -68 -71 -57 -82 4 -4 23 9 42 29 45 44 91 54
149 32 50 -19 57 -20 57 -6 0 6 -15 19 -32 30 -46 28 -115 26 -159 -3z"/>
<path d="M1105 2908 c-15 -23 -15 -23 41 -26 31 -2 59 -1 62 2 3 3 -3 15 -13
26 -25 27 -70 26 -90 -2z"/>
<path d="M3915 2880 c-12 -4 -27 -15 -34 -24 -10 -12 -32 -16 -90 -17 -42 0
-85 -4 -96 -9 -13 -6 9 -9 66 -9 79 -1 87 -3 92 -21 5 -19 12 -21 94 -18 81 3
88 5 91 24 2 14 -9 32 -33 53 -36 32 -54 36 -90 21z"/>
<path d="M4150 2690 c-24 -24 -25 -43 -4 -64 18 -19 55 -21 72 -4 19 19 15 66
-7 78 -28 14 -38 13 -61 -10z"/>
<path d="M3826 2508 c-26 -36 -19 -57 8 -25 l22 28 12 -26 c14 -29 55 -48 86
-39 27 8 66 44 66 60 0 25 -19 24 -44 -1 -32 -32 -51 -32 -80 0 -29 31 -50 32
-70 3z"/>
<path d="M866 2235 c-8 -8 -22 -15 -30 -15 -9 0 -16 -4 -16 -10 0 -6 32 -10
75 -10 41 0 75 2 75 5 0 2 -10 13 -22 25 -26 24 -61 26 -82 5z"/>
<path d="M1575 1300 c-66 -4 -138 -8 -160 -9 -31 -1 -36 -4 -23 -11 10 -6 143
-9 344 -8 312 3 327 4 310 21 -15 15 -37 17 -184 15 -92 -1 -221 -5 -287 -8z"/>
<path d="M2754 1181 c-22 -23 101 -29 151 -7 27 12 22 13 -58 12 -49 -1 -90
-3 -93 -5z"/>
<path d="M2198 420 c4 -71 22 -100 22 -34 0 43 22 42 30 -1 7 -41 28 -44 22
-3 -5 40 -21 61 -39 54 -9 -4 -13 4 -13 24 0 17 -5 30 -12 30 -10 0 -12 -19
-10 -70z"/>
<path d="M2682 420 c-2 -57 0 -70 13 -70 11 0 15 10 15 35 0 44 18 46 22 3 3
-33 3 -33 63 -35 46 -2 63 1 73 14 16 22 15 35 -2 58 -13 18 -15 18 -39 2 -22
-14 -26 -14 -31 -1 -3 8 -16 14 -28 13 -48 -4 -58 1 -58 26 0 14 -6 25 -13 25
-9 0 -14 -20 -15 -70z m98 -25 c0 -16 -6 -25 -15 -25 -15 0 -21 31 -8 43 13
14 23 6 23 -18z m74 10 c3 -8 3 -22 0 -30 -7 -17 -34 -21 -34 -4 0 5 -5 7 -11
3 -6 -3 -3 5 6 20 20 30 30 33 39 11z"/>
<path d="M2290 426 c-28 -35 11 -93 48 -70 24 16 27 42 6 65 -20 23 -37 24
-54 5z m44 -22 c7 -19 -12 -47 -25 -38 -5 3 -9 16 -9 30 0 27 24 33 34 8z"/>
<path d="M2374 415 c3 -11 6 -30 6 -42 0 -35 18 -27 22 10 2 17 8 32 13 32 6
0 11 -15 13 -32 4 -44 22 -42 22 2 0 19 4 35 9 35 5 0 12 -16 15 -35 4 -21 13
-35 21 -35 11 0 13 8 8 33 -8 46 -17 52 -79 52 -51 1 -55 -1 -50 -20z"/>
<path d="M2532 428 c-16 -16 -15 -40 3 -64 13 -16 16 -17 25 -4 7 11 4 17 -13
22 -18 5 -17 6 10 7 37 1 50 16 33 36 -15 18 -42 19 -58 3z m45 -14 c-3 -3
-12 -4 -19 -1 -8 3 -5 6 6 6 11 1 17 -2 13 -5z"/>
<path d="M2600 432 c0 -5 7 -13 16 -16 10 -4 14 -1 12 6 -5 15 -28 23 -28 10z"/>
<path d="M2886 431 c-6 -12 6 -81 15 -81 5 0 9 14 9 30 0 17 5 30 10 30 6 0
10 -13 10 -30 0 -16 5 -30 10 -30 6 0 10 16 10 35 0 19 5 35 10 35 6 0 10 -10
10 -22 0 -13 5 -30 10 -38 8 -12 11 -13 19 -1 6 9 11 10 15 2 10 -16 41 -14
56 4 11 13 10 14 -4 9 -9 -3 -24 -3 -33 1 -16 6 -15 8 7 20 14 7 28 11 32 9 5
-3 8 2 8 11 0 9 5 13 10 10 6 -3 10 -2 10 3 0 5 -16 9 -35 10 -24 1 -38 -5
-49 -19 -13 -19 -15 -20 -24 -3 -7 12 -24 18 -56 20 -26 1 -48 -1 -50 -5z"/>
<path d="M2575 360 c-3 -5 -2 -10 4 -10 5 0 13 5 16 10 3 6 2 10 -4 10 -5 0
-13 -4 -16 -10z"/>
</g>
</svg>