<?xml version="1.0" standalone="no"?>
<!DOCTYPE svg PUBLIC "-//W3C//DTD SVG 20010904//EN"
 "http://www.w3.org/TR/2001/REC-SVG-20010904/DTD/svg10.dtd">
<svg version="1.0" xmlns="http://www.w3.org/2000/svg"
 width="256" height="256" viewBox="0 0 512.000000 512.000000"
 preserveAspectRatio="xMidYMid meet">
<metadata>
Created by potrace 1.16, written by Peter Selinger 2001-2019
</metadata>
<g transform="translate(0.000000,512.000000) scale(0.100000,-0.100000)"
fill="url(#myGradient)" stroke="none">
<defs>
  <radialGradient id="myGradient" cx="70%" cy="20%" r="70%">
    <stop offset="50%" stop-color="#00FFFF" />
    <stop offset="100%" stop-color="#00FF00" />
  </radialGradient>
</defs>
<path d="M1513 4759 c-45 -13 -73 -53 -73 -105 0 -54 34 -97 91 -116 40 -13
43 -18 95 -133 30 -66 54 -129 54 -140 0 -11 24 -74 54 -140 l54 -118 -43 -63
c-47 -69 -74 -134 -104 -251 -23 -91 -51 -290 -51 -367 0 -29 -3 -74 -6 -100
-7 -46 -7 -46 -45 -46 -24 0 -47 -8 -66 -23 -15 -12 -47 -35 -69 -49 -53 -34
-55 -47 -55 -282 -1 -213 4 -245 39 -279 50 -48 143 -97 184 -97 35 0 38 -2
48 -42 55 -214 128 -294 325 -358 98 -31 107 -37 71 -46 -33 -8 -76 -58 -76
-89 0 -37 -34 -42 -71 -11 -60 51 -163 25 -240 -60 -122 -135 -208 -324 -243
-533 -18 -105 -10 -131 48 -162 l43 -22 -14 -46 c-20 -65 -13 -184 15 -238 42
-81 124 -141 156 -114 11 9 25 9 60 0 58 -14 96 -6 96 22 0 12 -24 47 -53 78
-55 60 -77 110 -77 175 0 31 3 36 23 36 32 0 67 -27 82 -63 11 -26 10 -35 -2
-53 -18 -28 -11 -53 24 -88 60 -60 112 -16 100 86 -13 107 -81 199 -158 215
-32 6 -33 7 -9 13 29 7 49 57 81 204 16 70 18 96 9 120 -8 24 -7 40 9 81 10
27 21 57 24 66 5 14 56 33 66 24 1 -2 -4 -48 -13 -102 -43 -267 -46 -349 -16
-398 21 -34 88 -82 147 -105 l32 -12 -3 -102 c-2 -55 -9 -133 -16 -173 l-13
-71 -42 -17 c-86 -32 -179 -146 -199 -241 -8 -36 -33 -44 -148 -44 -50 0 -68
-4 -68 -13 0 -11 37 -15 167 -20 205 -9 1590 -7 1692 2 l75 6 -36 14 c-32 12
-38 20 -49 63 -22 96 -131 218 -214 242 -17 5 -23 22 -38 109 -11 64 -14 112
-9 126 4 13 5 45 2 72 l-6 50 41 18 c58 26 122 85 135 127 7 21 9 60 5 102 -6
65 -39 290 -51 344 -10 48 22 33 63 -28 35 -52 37 -62 38 -133 0 -55 10 -109
34 -193 29 -103 36 -118 55 -118 17 -1 15 -3 -9 -14 -91 -40 -167 -227 -125
-307 19 -35 89 -18 127 31 18 22 16 50 -4 73 -17 18 -17 20 4 55 17 31 27 38
58 40 48 4 57 -9 49 -73 -9 -71 -28 -101 -83 -136 -54 -33 -68 -54 -49 -76 9
-12 25 -14 65 -9 31 4 54 2 58 -4 28 -46 151 54 183 149 15 44 15 149 0 209
-9 38 -9 47 3 51 7 2 27 17 42 33 28 27 29 31 22 91 -18 154 -84 338 -169 471
-45 70 -130 162 -168 182 -43 22 -100 17 -143 -11 -47 -33 -74 -26 -73 17 1
23 -7 39 -31 60 -17 15 -38 28 -46 28 -35 0 -10 18 47 34 186 52 309 184 352
379 5 19 12 27 29 27 32 0 137 52 179 89 23 20 38 44 43 67 9 51 8 441 -2 458
-12 22 -125 106 -148 111 -11 2 -31 6 -45 7 -22 3 -25 8 -27 48 -27 489 -124
748 -337 894 l-55 38 30 82 c16 44 46 126 67 181 l38 100 44 6 c58 8 100 53
100 107 0 102 -121 147 -186 69 -24 -28 -26 -37 -21 -91 6 -68 -12 -113 -47
-118 -16 -2 -38 -37 -88 -133 -77 -150 -61 -142 -208 -102 -347 95 -751 38
-1015 -143 l-41 -28 -58 114 c-31 63 -62 114 -67 114 -5 0 -36 55 -70 122 -46
93 -59 127 -54 147 17 69 17 86 0 116 -26 49 -77 70 -132 54z m97 -49 c29 -29
25 -66 -9 -101 -36 -35 -64 -37 -96 -4 -30 30 -32 64 -4 99 26 33 79 36 109 6z
m1838 -16 c15 -11 22 -25 22 -50 0 -69 -78 -101 -119 -48 -27 35 -26 59 4 89
28 29 61 32 93 9z m-1773 -254 c62 -126 73 -178 12 -63 -49 94 -87 183 -79
183 4 0 34 -54 67 -120z m1618 38 c15 -12 12 -25 -40 -149 -33 -79 -62 -136
-70 -136 -7 0 -13 4 -13 9 0 5 -4 7 -9 4 -14 -9 -19 16 -8 40 6 14 16 20 26
17 14 -3 22 7 36 44 10 26 26 63 37 81 20 32 18 69 -2 57 -6 -4 -5 4 2 19 13
29 17 31 41 14z m-1533 -238 c13 -24 2 -50 -11 -29 -9 15 -12 49 -4 49 2 0 9
-9 15 -20z m1076 5 c105 -19 238 -62 326 -106 70 -35 168 -104 168 -119 0 -6
-16 -31 -36 -57 -41 -54 -41 -39 -5 -297 25 -174 26 -225 7 -252 -13 -17 -31
-20 -148 -24 l-133 -5 130 -7 c137 -6 155 -3 180 36 14 21 14 38 0 167 -9 79
-23 178 -31 219 -19 102 -19 102 26 151 l40 44 20 -25 c66 -82 128 -250 154
-415 54 -348 49 -988 -9 -1181 -20 -69 -88 -169 -139 -206 -82 -60 -219 -103
-433 -135 -145 -21 -541 -24 -678 -5 -242 34 -418 92 -498 161 -46 41 -91 134
-111 231 -19 94 -36 404 -36 660 0 297 25 514 77 671 26 81 79 180 99 186 6 2
19 -8 29 -23 17 -26 17 -34 -4 -208 -33 -279 -33 -273 -17 -305 9 -16 23 -31
31 -35 21 -8 122 -6 205 4 57 7 51 8 -50 7 -63 -1 -124 2 -136 6 -41 14 -45
45 -29 206 8 82 20 173 25 202 14 74 12 116 -6 144 -15 23 -15 26 6 52 93 119
335 237 545 266 81 11 348 6 431 -8z m-1006 -107 c17 -39 25 -67 19 -72 -15
-16 -40 26 -26 43 10 11 8 13 -9 7 -16 -5 -24 1 -38 30 -14 30 -15 39 -4 45
23 15 29 10 58 -53z m1945 -1319 l0 -231 -30 -24 c-16 -13 -31 -20 -32 -16 -1
4 -4 135 -6 291 l-5 284 36 -37 37 -36 0 -231z m-2307 -119 c-3 -139 -3 -141
-23 -126 -19 14 -20 25 -18 256 1 219 3 243 20 262 18 20 18 17 21 -115 1 -75
1 -199 0 -277z m2169 188 c-1 -40 -3 -8 -3 72 0 80 2 112 3 73 2 -40 2 -106 0
-145z m-2232 -62 c0 -123 -3 -222 -6 -220 -20 12 -20 444 0 444 3 0 6 -101 6
-224z m2413 -1 c0 -49 -3 -115 -6 -145 -4 -30 -7 40 -7 155 0 122 2 183 6 145
4 -36 7 -105 7 -155z m-1578 -960 c101 -22 433 -31 569 -16 57 6 106 9 109 7
9 -9 -64 -101 -98 -123 -31 -22 -42 -23 -224 -23 l-191 0 -63 66 c-35 36 -66
64 -69 61 -8 -9 30 -58 80 -104 56 -51 81 -56 294 -51 158 3 159 3 193 31 18
16 46 45 61 65 15 20 37 49 49 64 15 20 37 30 93 43 39 9 91 25 114 35 l42 18
6 -66 c3 -37 19 -150 35 -252 16 -102 32 -214 36 -250 l6 -65 -42 40 c-23 22
-60 67 -82 100 l-40 60 5 173 c3 94 2 172 -2 172 -12 0 -21 -115 -21 -258 0
-140 7 -163 71 -236 43 -48 49 -83 25 -139 -21 -52 -152 -112 -331 -152 -165
-37 -506 -29 -682 16 -146 37 -193 80 -193 177 0 47 4 59 35 95 57 66 78 120
70 174 -4 25 -10 108 -15 185 -4 77 -11 142 -14 145 -17 17 -18 -22 -7 -192
l13 -186 -36 -54 c-31 -47 -91 -105 -109 -105 -11 0 -8 79 8 180 22 137 65
424 65 431 0 3 37 -7 83 -22 45 -15 116 -35 157 -44z m340 41 c148 0 270 4
328 13 88 12 115 11 98 -6 -16 -16 -163 -34 -331 -40 -250 -8 -485 16 -485 51
0 11 15 10 78 -2 54 -10 148 -15 312 -16z m-771 -25 c11 -7 11 -16 -4 -55 -12
-31 -16 -63 -13 -101 5 -64 -6 -70 -63 -32 -55 37 -52 91 7 157 37 41 49 46
73 31z m1641 -11 c15 -15 20 -33 20 -71 0 -46 -4 -55 -36 -85 -19 -19 -40 -34
-45 -34 -12 0 -12 3 6 36 20 40 19 93 -5 131 l-19 32 22 4 c12 2 25 5 30 6 4
0 16 -8 27 -19z m-1742 -17 c-50 -54 -59 -98 -36 -174 13 -47 7 -57 -27 -39
-63 34 -48 129 33 200 52 46 67 52 30 13z m1877 -110 c36 -74 -16 -178 -112
-227 -25 -13 -33 -13 -33 -4 0 7 -16 37 -35 65 -19 29 -35 55 -35 57 0 3 18
15 39 25 57 30 84 78 79 146 l-3 54 42 -41 c23 -23 50 -57 58 -75z m-207 36
l-3 -44 -10 58 c-9 48 -9 55 3 44 8 -9 12 -30 10 -58z m-1538 4 c-4 -42 -5
-44 -8 -15 -3 30 2 62 10 62 2 0 1 -21 -2 -47z m-236 -275 c20 -41 69 -77 120
-88 29 -6 31 -9 29 -46 -3 -48 -21 -135 -31 -151 -5 -8 -23 -6 -67 9 -47 15
-79 19 -148 16 l-89 -3 6 47 c12 89 46 203 86 286 21 45 41 82 43 82 3 0 -11
-41 -30 -92 -40 -107 -80 -288 -63 -288 5 0 13 30 20 67 6 37 30 126 53 197
l42 130 6 -64 c3 -36 13 -82 23 -102z m2076 70 c41 -89 76 -209 87 -297 6 -51
5 -54 -13 -46 -43 18 -139 17 -204 -4 -35 -11 -66 -19 -67 -17 -7 6 -43 141
-43 159 0 9 19 37 43 61 56 58 102 121 130 178 12 26 23 48 25 48 2 0 21 -37
42 -82z m-1959 16 l56 -17 -18 -47 c-11 -30 -14 -51 -8 -61 14 -22 11 -29 -14
-29 -66 0 -137 83 -137 161 l0 39 33 -14 c17 -8 57 -22 88 -32z m79 30 c0 -2
-11 -4 -25 -4 -14 0 -25 4 -25 9 0 4 11 6 25 3 14 -2 25 -6 25 -8z m1680 -151
c0 -10 -32 -43 -42 -43 -15 0 -8 29 10 39 20 12 32 14 32 4z m-211 -209 c53
-67 2 -137 -137 -192 -285 -113 -695 -121 -1007 -22 -143 46 -215 101 -215
164 0 28 24 66 41 66 4 0 10 -19 14 -42 15 -88 48 -122 153 -157 201 -66 573
-75 797 -21 208 51 301 107 312 188 7 49 14 52 42 16z m424 -95 c5 -18 2 -20
-16 -15 -12 3 -28 6 -34 6 -7 0 -13 7 -13 15 0 25 56 20 63 -6z m-2143 1 c-19
-13 -30 -13 -30 0 0 6 10 10 23 10 18 0 19 -2 7 -10z m26 -104 c-1 -50 3 -68
18 -85 l19 -21 -41 0 c-30 0 -42 4 -45 18 -3 12 -5 11 -6 -6 -1 -14 -6 -22
-13 -19 -16 5 -15 110 1 150 8 21 17 27 40 27 l29 0 -2 -64z m2122 55 c9 -5
16 -38 19 -90 5 -71 4 -81 -11 -81 -17 0 -21 23 -17 89 2 23 -1 31 -9 26 -6
-4 -10 -14 -9 -23 1 -10 1 -32 0 -49 -1 -29 -5 -33 -27 -33 -22 0 -25 3 -20
23 3 12 6 50 6 85 0 61 0 62 28 62 15 0 33 -4 40 -9z m-1955 -46 c-3 -9 -8
-14 -10 -11 -3 3 -2 9 2 15 9 16 15 13 8 -4z m67 -56 c0 -17 -19 -9 -32 14
-22 39 -17 53 8 24 13 -15 24 -32 24 -38z m1646 39 c-3 -13 -5 -24 -5 -26 -1
-2 -6 0 -11 3 -7 4 -7 13 0 26 14 25 21 24 16 -3z m34 12 c0 -5 -2 -10 -4 -10
-3 0 -8 5 -11 10 -3 6 -1 10 4 10 6 0 11 -4 11 -10z m-66 -89 c-8 -17 -11 -18
-27 -6 -16 11 -17 17 -7 35 11 20 13 21 28 7 11 -12 13 -22 6 -36z m-314 -12
c0 -24 -4 -38 -10 -34 -5 3 -10 22 -10 41 0 19 5 34 10 34 6 0 10 -18 10 -41z
m-45 21 c-3 -5 -15 -10 -26 -10 -12 0 -19 -5 -16 -12 2 -7 15 -13 29 -13 l25
1 -21 -29 c-28 -39 -53 -47 -146 -47 -85 0 -110 12 -110 53 0 16 3 18 12 9 7
-7 21 -12 33 -12 23 0 82 20 105 35 8 6 35 15 60 21 60 15 62 16 55 4z m-1225
-10 c0 -5 -7 -10 -15 -10 -8 0 -15 5 -15 10 0 6 7 10 15 10 8 0 15 -4 15 -10z
m280 -4 c0 -8 3 -21 6 -30 4 -11 1 -16 -10 -16 -11 0 -16 9 -16 30 0 17 5 30
10 30 6 0 10 -6 10 -14z m110 -7 c0 -5 4 -8 9 -4 11 6 143 -14 162 -26 10 -6
10 -13 1 -33 -11 -25 -15 -26 -96 -26 -103 0 -155 17 -156 52 0 14 33 39 46
34 8 -3 14 -1 14 4 0 6 5 10 10 10 6 0 10 -5 10 -11z m707 -5 c-3 -3 -12 -4
-19 -1 -8 3 -5 6 6 6 11 1 17 -2 13 -5z m-182 -63 c4 -25 2 -46 -6 -59 -10
-16 -9 -36 5 -103 10 -46 21 -97 27 -113 7 -22 5 -34 -10 -55 -23 -32 -51
-113 -51 -146 l0 -25 -115 0 -115 0 -6 28 c-12 57 -35 118 -53 146 -13 19 -17
35 -12 45 5 9 19 59 31 112 17 76 20 101 11 118 -7 12 -9 36 -5 56 l6 35 143
0 143 0 7 -39z m647 33 c8 -7 -9 -65 -22 -78 -7 -7 -10 5 -10 37 0 33 4 47 13
47 8 0 16 -3 19 -6z m-1752 -121 c0 -6 -10 -11 -21 -10 -23 2 -61 46 -78 89
-9 25 -8 27 17 30 23 3 31 -4 54 -47 15 -27 27 -55 28 -62z m200 81 c0 -31 -2
-35 -15 -24 -8 7 -15 23 -15 36 0 15 6 24 15 24 11 0 15 -11 15 -36z m1804 14
c-16 -54 -67 -134 -60 -96 8 41 43 118 54 118 9 0 11 -7 6 -22z m58 -9 c-3
-31 -50 -96 -93 -129 l-32 -25 35 47 c20 26 42 64 48 85 16 50 20 55 33 50 7
-2 11 -15 9 -28z m-2178 -25 c9 -26 28 -63 42 -83 l27 -36 -37 35 c-41 38 -54
58 -66 101 -15 50 16 34 34 -17z m666 -45 c48 -7 85 -7 126 0 32 6 59 9 62 6
2 -2 1 -33 -2 -68 -6 -49 -13 -70 -30 -86 -23 -21 -24 -21 -117 -6 -52 8 -109
15 -128 15 l-33 0 7 58 c10 88 16 104 32 98 8 -4 46 -11 83 -17z m919 -31 c5
-29 11 -65 14 -80 l4 -28 -63 0 c-35 0 -95 -5 -133 -12 -39 -7 -73 -9 -77 -5
-4 4 -15 42 -24 85 l-17 79 51 -9 c53 -9 164 -2 200 12 33 14 34 13 45 -42z
m-299 -22 c0 -39 -6 -30 -13 19 -4 27 -3 35 3 25 5 -8 10 -28 10 -44z m-1110
-1 c16 -9 19 -14 9 -15 -8 0 -24 7 -35 15 -24 18 -7 19 26 0z m1117 -57 c-3
-8 -6 -5 -6 6 -1 11 2 17 5 13 3 -3 4 -12 1 -19z m-547 -93 c61 -16 101 -50
130 -111 27 -60 27 -100 -2 -107 -13 -3 -97 -9 -187 -13 l-164 -7 5 52 c7 74
33 105 90 109 54 4 92 -22 119 -82 10 -23 19 -33 19 -23 1 62 -68 127 -134
127 -69 0 -104 -39 -115 -124 -4 -32 -11 -51 -18 -50 -7 1 -53 2 -103 3 l-89
1 14 47 c29 96 111 173 205 193 54 11 157 4 230 -15z m897 10 c95 -28 172
-108 193 -199 l7 -34 -114 -7 c-109 -7 -366 0 -447 12 l-38 5 4 54 c5 64 44
125 93 148 72 34 222 45 302 21z"/>
<path d="M2075 4070 c4 -7 2 -16 -5 -20 -18 -11 -5 -40 18 -40 50 0 52 61 2
68 -15 3 -20 0 -15 -8z"/>
<path d="M3411 3585 c-1 -6 9 -100 21 -210 29 -268 32 -666 5 -833 -27 -171
-51 -239 -101 -288 -91 -87 -378 -164 -709 -190 -43 -3 -76 -8 -74 -10 11 -11
301 18 413 41 213 44 348 98 402 159 52 59 84 210 104 479 13 174 2 439 -27
667 -16 119 -32 207 -34 185z"/>
<path d="M2311 3348 c-102 -11 -288 -57 -385 -95 -87 -34 -146 -89 -170 -159
-46 -134 -42 -337 10 -574 68 -302 94 -332 359 -396 138 -33 164 -29 35 6
-204 55 -270 91 -309 169 -24 48 -67 213 -86 335 -29 183 -15 407 32 490 38
66 267 148 498 177 158 20 466 15 608 -10 149 -26 298 -75 351 -116 81 -61
126 -189 129 -368 3 -129 20 -88 20 48 0 155 -36 268 -109 339 -65 63 -247
124 -454 152 -117 15 -399 16 -529 2z"/>
<path d="M2013 3166 c-84 -43 -134 -95 -174 -180 -93 -199 -25 -444 151 -540
145 -79 346 -19 453 134 53 77 70 142 65 254 -3 76 -9 102 -35 158 -36 76 -95
138 -168 176 -39 20 -69 26 -135 30 -82 4 -88 2 -157 -32z m258 -61 c52 -19
109 -61 109 -81 0 -23 -34 -16 -95 21 -83 50 -159 56 -250 20 -15 -6 -13 -2 7
13 14 12 37 26 50 31 36 15 131 13 179 -4z m-355 -73 c-47 -71 -71 -153 -71
-247 0 -68 5 -90 31 -145 45 -96 109 -153 209 -187 l40 -13 -41 4 c-89 8 -172
74 -221 174 -26 53 -28 65 -27 177 0 103 3 127 23 170 17 39 75 115 87 115 2
0 -12 -22 -30 -48z m502 -83 l-3 -24 -13 23 c-7 12 -10 27 -6 33 10 17 26 -6
22 -32z m-138 6 c98 -51 39 -196 -62 -154 -67 28 -77 134 -15 159 32 13 44 12
77 -5z m-275 -47 c-31 -57 -39 -106 -25 -157 13 -50 63 -109 107 -127 107 -45
234 30 254 149 l6 42 2 -38 c4 -143 -159 -243 -289 -177 -116 59 -146 233 -58
327 30 32 30 29 3 -19z"/>
<path d="M2895 3187 c-64 -22 -97 -42 -147 -94 -194 -200 -138 -526 112 -654
32 -16 68 -24 126 -27 72 -4 89 -1 137 21 159 72 251 256 218 433 -35 190
-173 324 -341 331 -36 1 -83 -3 -105 -10z m308 -185 c28 -27 36 -52 15 -52
-17 0 -88 71 -88 87 0 18 34 1 73 -35z m-55 -48 c12 -8 29 -28 37 -45 14 -26
14 -32 -2 -56 -25 -41 -43 -53 -79 -53 -24 0 -39 8 -58 31 -34 40 -33 74 3
110 33 32 65 37 99 13z m157 -174 c0 -125 -17 -171 -90 -249 -59 -63 -113 -90
-196 -96 l-64 -5 64 15 c81 19 138 52 189 110 49 55 69 97 84 170 10 53 3 139
-17 200 -3 11 2 7 12 -10 14 -24 18 -51 18 -135z m-482 119 c-36 -73 -24 -164
30 -226 72 -81 192 -86 275 -9 33 29 62 89 63 128 0 18 5 42 10 53 6 14 8 -1
5 -48 -3 -53 -10 -78 -33 -115 -103 -166 -333 -132 -383 57 -14 54 -6 115 20
159 25 41 33 42 13 1z"/>
<path d="M2484 2448 c-30 -28 -44 -48 -42 -62 3 -20 10 -21 136 -24 121 -2
132 -1 132 15 0 53 -73 113 -138 113 -36 0 -49 -6 -88 -42z"/>
<path d="M3314 2363 c7 -34 30 -57 50 -50 35 14 4 77 -37 77 -13 0 -16 -6 -13
-27z"/>
<path d="M3015 2230 c-38 -4 -201 -8 -361 -9 -253 -1 -293 -3 -305 -17 -9 -11
-10 -20 -2 -32 9 -15 37 -17 224 -20 201 -2 215 -1 241 18 15 11 39 20 54 20
35 0 231 29 269 40 29 8 28 8 -10 8 -22 -1 -71 -4 -110 -8z"/>
<path d="M2348 2073 c7 -3 16 -2 19 1 4 3 -2 6 -13 5 -11 0 -14 -3 -6 -6z"/>
<path d="M2433 2063 c15 -2 39 -2 55 0 15 2 2 4 -28 4 -30 0 -43 -2 -27 -4z"/>
<path d="M2273 1620 c-47 -19 -59 -101 -20 -138 49 -46 127 -9 127 62 0 26 -7
40 -31 60 -33 28 -42 30 -76 16z m65 -58 c4 -24 -13 -52 -31 -52 -6 0 -2 6 8
14 23 17 13 46 -16 46 -17 0 -20 -5 -17 -25 3 -13 1 -22 -3 -19 -5 3 -9 13 -9
23 0 43 62 55 68 13z"/>
<path d="M2863 1612 c-33 -26 -46 -70 -32 -104 22 -54 92 -66 134 -23 35 34
33 78 -4 116 -33 33 -66 37 -98 11z m72 -26 c16 -12 18 -19 10 -42 -11 -32
-38 -42 -60 -24 -20 16 -19 39 2 62 19 22 24 22 48 4z"/>
<path d="M2907 1553 c-12 -11 -8 -23 8 -23 8 0 15 7 15 15 0 16 -12 20 -23 8z"/>
<path d="M2412 1588 c-7 -7 -12 -44 -12 -95 0 -71 3 -84 19 -93 26 -13 326
-13 352 0 16 9 19 22 19 93 0 51 -5 88 -12 95 -17 17 -349 17 -366 0z m323
-38 c-4 -6 -65 -10 -150 -10 -85 0 -146 4 -150 10 -4 7 48 10 150 10 102 0
154 -3 150 -10z m5 -50 c0 -6 -58 -10 -155 -10 -97 0 -155 4 -155 10 0 6 58
10 155 10 97 0 155 -4 155 -10z m-72 -57 c-42 -2 -114 -2 -160 0 -46 1 -11 3
77 3 88 0 125 -2 83 -3z"/>
<path d="M2292 1338 l3 -33 304 0 c269 0 305 2 314 16 6 9 7 24 4 33 -6 14
-39 16 -317 16 l-311 0 3 -32z"/>
<path d="M2992 554 c-27 -19 -52 -65 -51 -96 0 -20 2 -20 12 7 23 59 37 74 78
85 70 19 141 -21 167 -95 9 -26 11 -27 11 -7 1 35 -26 81 -62 102 -40 25 -123
27 -155 4z"/>
</g>
</svg>